# xmcd CD database file
#
# Track frame offsets:
#	180
#	19978
#	38118
#	53123
#	76629
#	103845
#	116373
#	129791
#	145680
#	161591
#	178779
#	200436
#	217906
#
# Disc length: 3140 seconds
#
# Revision: 0
# Processed by: cddbd v1.4PL0 Copyright (c) Steve Scherf et al.
# Submitted via: CDex 1.50beta9
#
DISCID=a40c420d
DTITLE=Eric Clapton - Frisco Blues (1)
DYEAR=1994
DGENRE=Blues
TTITLE0=Standin' Round Crying
TTITLE1=Forty Four
TTITLE2=It Hurts Me Too
TTITLE3=Five Long Years
TTITLE4=Crossroads
TTITLE5=Malted Milk
TTITLE6=Motherless Child
TTITLE7=How Long
TTITLE8=Reconsider Baby
TTITLE9=Sinner's Prayer
TTITLE10=Every Day I Have The Blues
TTITLE11=Someday After A While
TTITLE12=Crosscut Saw
EXTD=YEAR: 1994
EXTT0=
EXTT1=
EXTT2=
EXTT3=
EXTT4=
EXTT5=
EXTT6=
EXTT7=
EXTT8=
EXTT9=
EXTT10=
EXTT11=
EXTT12=
PLAYORDER=
